<svg xmlns="http://www.w3.org/2000/svg" viewBox="0 0 640 400" width="640" height="400" role="img" aria-label="Animated Nanite wireframe placeholder">
  <defs>
    <style>
      .bg { fill: #04060a; }
      .grid { stroke: #0c3b22; stroke-width: 1; }
      .mesh { fill: none; stroke: #2fe07a; stroke-width: 1.5; stroke-linejoin: round;
              stroke-dasharray: 1400; stroke-dashoffset: 1400;
              animation: draw 4s ease-in-out infinite; }
      .mesh.b { stroke: #7bffb0; animation-delay: .6s; opacity: .85; }
      .core { fill: none; stroke: #aaffce; stroke-width: 2; transform-origin: 320px 190px;
              animation: spin 9s linear infinite; }
      .scan { fill: #2fe07a; opacity: .06; animation: scan 3.2s linear infinite; }
      .label { fill: #7bffb0; font-family: 'Ubuntu Mono', monospace; font-size: 18px; }
      .dim { fill: #2fe07a; opacity: .6; }
      @keyframes draw { 0% { stroke-dashoffset: 1400; } 45% { stroke-dashoffset: 0; }
                        80% { stroke-dashoffset: 0; } 100% { stroke-dashoffset: -1400; } }
      @keyframes spin { to { transform: rotate(360deg); } }
      @keyframes scan { 0% { transform: translateY(-40px); } 100% { transform: translateY(400px); } }
    </style>
  </defs>

  <rect class="bg" x="0" y="0" width="640" height="400"/>

  <!-- faint grid -->
  <g class="grid">
    <line x1="0" y1="100" x2="640" y2="100"/><line x1="0" y1="200" x2="640" y2="200"/>
    <line x1="0" y1="300" x2="640" y2="300"/>
    <line x1="160" y1="0" x2="160" y2="400"/><line x1="320" y1="0" x2="320" y2="400"/>
    <line x1="480" y1="0" x2="480" y2="400"/>
  </g>

  <!-- subdividing wireframe mesh -->
  <polyline class="mesh"   points="120,300 220,140 320,300 120,300 220,140 320,140 320,300"/>
  <polyline class="mesh b" points="320,300 420,140 520,300 320,300 420,140 420,300 520,300"/>
  <polyline class="mesh"   points="170,220 270,220 220,140 170,220 270,220 320,300"/>
  <polyline class="mesh b" points="370,220 470,220 420,140 370,220 470,220 520,300"/>

  <!-- rotating core polygon -->
  <polygon class="core" points="320,150 360,180 345,225 295,225 280,180"/>

  <!-- scanline -->
  <rect class="scan" x="0" y="0" width="640" height="40"/>

  <!-- label -->
  <text class="label" x="24" y="368">NANITE <tspan class="dim">// virtualized geometry</tspan></text>
</svg>
